<?xml version="1.0" encoding="utf-8"?>
<!-- Generator: Adobe Illustrator 23.0.2, SVG Export Plug-In . SVG Version: 6.00 Build 0)  -->
<svg version="1.1" id="Calque_2" xmlns="http://www.w3.org/2000/svg" xmlns:xlink="http://www.w3.org/1999/xlink" x="0px" y="0px"
	 viewBox="0 0 595.3 841.9" style="enable-background:new 0 0 595.3 841.9;" xml:space="preserve">
<style type="text/css">
	.st0{fill:#023946;}
	.st1{fill:#296667;}
	.st2{fill:#9EDADA;}
	.st3{fill:#1A2730;}
	.st4{fill:none;}
</style>
<path class="st0" d="M424.4,295.9c-34.6-28.7-70.7-46-107.1-51.6c19-5,35.2-16.9,44.2-44.9c0,0-63.4-13.9-85,43.5
	c-16.7,1.4-33.4,5.2-49.9,11.5c-49.9,18.9-80.4,52.9-81.7,54.3c-1.8,2.1-1.6,5.2,0.4,7.1c1,0.8,2.1,1.3,3.3,1.3
	c1.4,0,2.8-0.6,3.7-1.7c0.3-0.3,30.2-33.6,77.8-51.6c27.8-10.5,56.1-13.8,84.2-9.8c2.3,0.3,4.5,0.7,6.8,1.1
	c5.6,60,13.7,119.8,96.1,138.3c0,0,11.2-90.3-61.7-128c21.1,8.6,42,21.4,62.5,38.3c2.1,1.8,5.3,1.5,7-0.7
	C426.8,300.8,426.5,297.7,424.4,295.9z"/>
<path class="st1" d="M467.5,359.7c-0.8-2.6-3.6-4.1-6.3-3.3c-2.6,0.8-4.1,3.6-3.3,6.3c0.1,0.4,13.3,43.5,4.2,93.6
	c-5.3,29.2-17.1,55.1-35,77c-1.4,1.7-2.8,3.4-4.3,5.1c-54.3-26.1-109.8-49.8-168,11.3c0,0,71.6,56,141.4,13.1
	c-18.2,13.7-39.9,25-64.9,33.8c-2.6,0.9-4,3.8-3.1,6.4c0.7,2.1,2.7,3.3,4.7,3.3c0.6,0,1.1-0.1,1.7-0.3c42.4-15,75.8-37,99.4-65.4
	c-5.5,18.9-3.6,38.9,15.8,61c0,0,44.5-47.3,6.4-95.3c7.4-15.1,12.7-31.3,15.8-48.7C481.5,405.2,468,361.6,467.5,359.7z"/>
<path class="st2" d="M250.1,596.6c-0.4-0.1-43.4-13.6-79.6-49.5c-21.1-20.9-35.8-45.3-43.8-72.4c-0.6-2.1-1.2-4.3-1.7-6.4
	c52.2-30.1,103.2-62.5,85.6-145c0,0-86.8,27.5-90.7,109.4c-1-22.8,1.9-47.1,8.8-72.8c0.7-2.7-0.9-5.4-3.5-6.1
	c-2.7-0.7-5.4,0.9-6.1,3.5c-11.6,43.4-12.4,83.4-2.2,118.9c-12.5-15.2-30-24.9-59.2-21.5c0,0,13.9,63.4,75,59.2
	c8.3,14.6,18.7,28.2,31.3,40.6c38,37.5,81.6,51.1,83.4,51.6c0.5,0.1,1,0.2,1.5,0.2c2.1,0,4.1-1.4,4.8-3.5
	C254.3,600.2,252.8,597.5,250.1,596.6z"/>
<path class="st3" d="M309,331.6c-0.1-0.9-0.9-1.6-1.9-1.6c-1.1,0-1.9,0.9-1.9,1.9l0.7,76.8c0,1-0.7,1.8-1.6,1.9l-4.9,0.7
	c-1.2,0.2-2.2-0.7-2.2-1.9l0.5-77.5c0-1.1-0.9-1.9-1.9-1.9h-2.8c-1.1,0-1.9,0.8-1.9,1.9l-0.7,78c0,1-0.8,1.8-1.8,1.9l-1.4,0.1
	c-0.1,0-0.2,0-0.3,0l-1.4-0.1c-1-0.1-1.8-0.9-1.8-1.9l-0.7-78c0-1.1-0.9-1.9-1.9-1.9H278c-1.1,0-1.9,0.9-1.9,1.9l0.5,77.5
	c0,1.2-1,2.1-2.2,1.9l-4.9-0.7c-1-0.1-1.7-1-1.6-1.9l0.7-76.8c0-1.1-0.9-1.9-1.9-1.9c-1,0-1.8,0.7-1.9,1.6
	C263,343.8,252,421.3,253,461.2c-0.1,16.6,22.9,26.3,23.9,28.9c0.9,2.2,2.2,1.2,2.3,10.4v4c0,0.3,0,0.6,0,0.9c0,0.6,0,1.2,0,1.7
	v17.3c0,0,12.8-7.3,15.6-8.4c-0.2-13-0.3-13.6-0.3-13.6c0-11.3,1.4-9.9,2.3-12.3c1-2.6,24-12.3,23.9-28.9
	C321.8,421.3,310.8,343.8,309,331.6z"/>
<rect x="-558.2" y="-88.2" class="st4" width="144.8" height="71.2"/>
</svg>
